<?xml version="1.0" encoding="UTF-8" standalone="no"?>
<svg
   xmlns:dc="http://purl.org/dc/elements/1.1/"
   xmlns:cc="http://creativecommons.org/ns#"
   xmlns:rdf="http://www.w3.org/1999/02/22-rdf-syntax-ns#"
   xmlns:svg="http://www.w3.org/2000/svg"
   xmlns="http://www.w3.org/2000/svg"
   xmlns:sodipodi="http://sodipodi.sourceforge.net/DTD/sodipodi-0.dtd"
   xmlns:inkscape="http://www.inkscape.org/namespaces/inkscape"
   width="996.09406mm"
   height="309.63806mm"
   viewBox="0 0 996.09406 309.63806"
   version="1.1"
   id="svg135"
   inkscape:version="1.0.2 (e86c870879, 2021-01-15)"
   sodipodi:docname="logo-nb.svg">
  <defs
     id="defs129" />
  <sodipodi:namedview
     id="base"
     pagecolor="#ffffff"
     bordercolor="#666666"
     borderopacity="1.0"
     inkscape:pageopacity="0.0"
     inkscape:pageshadow="2"
     inkscape:zoom="0.35"
     inkscape:cx="1785.2396"
     inkscape:cy="465.14279"
     inkscape:document-units="mm"
     inkscape:current-layer="layer1"
     inkscape:document-rotation="0"
     showgrid="false"
     inkscape:window-width="1600"
     inkscape:window-height="836"
     inkscape:window-x="0"
     inkscape:window-y="27"
     inkscape:window-maximized="1" />
  <metadata
     id="metadata132">
    <rdf:RDF>
      <cc:Work
         rdf:about="">
        <dc:format>image/svg+xml</dc:format>
        <dc:type
           rdf:resource="http://purl.org/dc/dcmitype/StillImage" />
        <dc:title></dc:title>
      </cc:Work>
    </rdf:RDF>
  </metadata>
  <g
     inkscape:label="Layer 1"
     inkscape:groupmode="layer"
     id="layer1"
     transform="translate(366.51131,-25.097636)">
    <path
       style="fill:#000000;stroke-width:1.20952"
       d="M 119.04149,179.91667 V 25.097636 h 7.86191 7.8619 V 179.91667 334.7357 h -7.8619 -7.86191 z M -292.1966,329.88356 c -5.65326,-0.99835 -8.79079,-2.81785 -12.53772,-7.27083 -3.97496,-4.72397 -5.8759,-11.76251 -4.87212,-18.0398 0.75119,-4.69769 0.64613,-4.91342 -2.39271,-4.91342 h -3.1784 v -68.94284 c 0,-68.00576 -0.0339,-68.97674 -2.49231,-71.43518 -1.56247,-1.56247 -2.35217,-3.68674 -2.11667,-5.69379 0.63686,-5.42761 12.24801,-12.76781 24.26374,-15.33876 1.82941,-0.39143 3.32619,-1.46137 3.32619,-2.37764 0,-1.42538 -7.63372,-9.17368 -9.03802,-9.17368 -0.26795,0 -1.89517,2.58536 -3.61604,5.74524 -3.68468,6.76588 -9.54939,11.15176 -16.08384,12.02822 -4.84868,0.65034 -8.75733,-1.58984 -8.75733,-5.01911 0,-4.29306 17.81237,-15.17339 24.84061,-15.17339 2.7923,0 2.17833,-5.7434 -0.78342,-7.32848 -2.23498,-1.19612 -3.01387,-0.80604 -6.26429,3.13729 -3.80122,4.61154 -13.94941,10.20586 -18.55195,10.22699 -3.466,0.0159 -5.65457,-2.88405 -4.73955,-6.28014 0.67024,-2.4876 0.55848,-2.44702 -1.06426,0.38646 -1.91977,3.35213 -7.39401,5.18553 -12.01798,4.02499 -2.55885,-0.64223 -8.02869,-7.31594 -8.02869,-9.79574 0,-0.68509 -2.12081,-1.88102 -4.71293,-2.65764 -5.69349,-1.70581 -6.37388,-3.15784 -4.69365,-10.01679 1.63153,-6.660134 2.92594,-8.306464 6.53087,-8.306464 2.58301,0 2.87571,-0.530477 2.87571,-5.21168 0,-2.866425 0.68036,-6.07108 1.51191,-7.12146 2.13732,-2.69978 12.72392,-3.67345 14.05622,-1.29277 0.79736,1.42481 1.54131,1.52154 3.52737,0.45863 3.26841,-1.7492 3.88546,-1.69851 3.88546,0.31918 0,0.9164 0.73381,2.2752 1.63069,3.01954 1.24414,1.03254 2.14871,0.78094 3.81603,-1.06142 2.79371,-3.08702 6.87638,-3.08521 9.67232,0.004 1.20407,1.33047 2.83692,2.419045 3.62857,2.419045 2.40085,0 5.44286,4.229964 5.44286,7.568367 0,4.345162 -3.01382,6.945912 -8.04909,6.945912 -2.79002,0 -4.08001,0.50317 -3.759,1.46622 0.31368,0.94102 2.52024,1.34128 6.16024,1.11744 5.4796,-0.33697 5.69696,-0.22143 6.42422,3.41484 0.41399,2.06998 1.90546,4.37004 3.31437,5.11125 3.33312,1.75349 4.3244,3.33655 4.404,7.03311 0.0442,2.05411 1.31078,3.80159 3.94947,5.44915 2.1364,1.33395 4.79551,4.24731 5.90913,6.47414 1.11362,2.22683 3.15469,4.84022 4.53571,5.80752 3.96904,2.78002 3.04331,6.3996 -3.09983,12.12036 l -5.61078,5.22501 h 78.78696 78.78698 v 12.70001 12.7 h -51.40476 c -49.75694,0 -51.40476,0.0739 -51.40476,2.30581 0,1.79265 0.60565,2.14975 2.72143,1.60454 2.42421,-0.62469 2.54013,-0.48023 1.06143,1.32276 -1.42935,1.74278 -1.38733,2.02403 0.30238,2.02403 2.1228,0 2.70952,1.9619 0.78372,2.62064 -0.64827,0.22174 -0.85392,1.63928 -0.45703,3.15009 0.54563,2.07696 1.10183,2.43138 2.28051,1.45317 1.03118,-0.85581 1.81315,-0.88232 2.31004,-0.0784 0.41315,0.66848 1.55018,0.90882 2.52673,0.53409 1.10712,-0.42485 1.77555,0.0504 1.77555,1.26234 0,1.06904 0.40821,1.87924 0.90714,1.80046 2.36617,-0.37361 2.88695,0.30068 1.51191,1.95752 -1.24661,1.50207 -1.11598,1.8209 0.75905,1.85275 2.02585,0.0344 2.06217,0.1939 0.34431,1.5119 -1.05624,0.81039 -1.69124,2.1538 -1.41111,2.98535 0.28013,0.83155 -0.35245,1.5119 -1.40575,1.5119 -1.05329,0 -1.91507,0.87466 -1.91507,1.9437 0,1.23079 -0.66544,1.68833 -1.81429,1.24747 -0.99786,-0.38291 -1.81429,-0.16899 -1.81429,0.47536 0,0.73572 17.54912,1.17157 47.17143,1.17157 h 47.17143 v 13.37581 13.3758 l -5.14048,5.48449 c -2.82726,3.01647 -4.93834,5.842 -4.69128,6.27895 0.24706,0.43696 3.20556,1.82268 6.57446,3.07939 l 6.12527,2.28494 -6.40965,3.24801 -6.40965,3.24801 6.18519,4.44362 c 5.7989,4.16616 7.75577,6.86675 4.97566,6.86675 -0.72147,0 -1.20952,4.6365 -1.20952,11.49047 v 11.49047 h -6.35607 -6.35607 l 0.006,8.24817 c 0.005,6.80456 -0.51952,9.01605 -2.99695,12.63554 -4.27049,6.23911 -10.71653,9.52718 -18.67742,9.52718 -13.82223,0 -21.76645,-8.70839 -21.09771,-23.12715 l 0.30977,-6.67897 -37.20208,-0.31997 -37.20208,-0.31998 0.7864,5.24407 c 1.17205,7.81577 -1.07995,14.38268 -6.66155,19.42532 -4.26016,3.84879 -6.75123,4.97872 -13.32373,6.04351 -0.99786,0.16167 -3.71929,-0.0425 -6.04762,-0.45367 z m 14.6378,-5.12818 c 2.28304,-1.51274 5.40159,-5.32814 7.01598,-8.5837 2.40195,-4.84373 2.71672,-6.62715 1.81429,-10.2792 l -1.09188,-4.41868 h -18.14285 -18.14286 l -0.32752,6.65238 c -0.38493,7.81843 2.29278,13.16701 8.48075,16.93986 5.56877,3.39533 15.01826,3.25138 20.39409,-0.31066 z m 114.69724,0.95234 c 7.70816,-3.98605 11.97388,-12.45444 10.42702,-20.6999 l -0.77644,-4.13878 h -17.95863 c -20.04821,0 -19.43068,-0.28197 -19.42246,8.86797 0.006,6.12832 3.39318,12.06083 8.75347,15.32903 4.73534,2.88718 14.02715,3.20137 18.97704,0.64168 z m -127.18511,-36.39774 c 1.96843,-1.37874 2.67851,-3.07891 2.65208,-6.35 l -0.0361,-4.46713 -4.76591,5.44286 c -2.62124,2.99357 -4.78214,5.85107 -4.802,6.35 -0.0627,1.57531 4.15492,0.98336 6.95193,-0.97573 z m -7.2904,-8.25146 c 4.36132,-5.7931 4.69861,-6.799 2.27978,-6.799 -3.40057,0 -8.02502,4.92953 -8.02502,8.55445 0,1.94743 0.40821,3.52396 0.90714,3.50339 0.49893,-0.0206 2.67607,-2.38705 4.8381,-5.25884 z m 50.56882,-8.65175 c -1.29131,-0.9767 -3.7406,-1.77886 -5.44286,-1.78257 -4.24291,-0.01 -11.19222,-2.03801 -13.99094,-4.08449 -3.48516,-2.54841 -0.71971,-5.01558 9.20477,-8.21198 4.67532,-1.50578 8.34354,-3.38019 8.34354,-4.26342 0,-1.87992 2.03711,-2.11727 2.64032,-0.30765 0.27721,0.83165 6.04016,0.23903 16.73174,-1.72056 8.96989,-1.64402 22.56818,-3.85394 30.21842,-4.91093 7.65023,-1.05699 15.38499,-2.16987 17.18836,-2.47306 2.935,-0.49346 3.36132,-0.11152 4.06556,3.64236 0.43269,2.30649 1.13436,4.18396 1.55926,4.17214 0.42489,-0.0121 8.39253,-2.15145 17.70586,-4.75477 l 16.93334,-4.73329 -63.80238,-0.0833 -63.80238,-0.0833 v 15.72381 15.72381 l 12.39762,-0.0385 c 11.16502,-0.0346 12.16419,-0.21503 10.04977,-1.81429 z m 11.41927,0.5759 c -3.91583,-0.57397 -7.12506,-0.51189 -7.80143,0.15089 -0.71133,0.69704 1.82283,1.06848 6.65239,0.97506 l 7.80142,-0.15089 z m 74.38572,-2.30387 c -7.31762,-1.81668 -13.46733,-3.17914 -13.66601,-3.0277 -0.19869,0.15145 -0.004,1.70029 0.4335,3.44188 l 0.79475,3.16654 12.87126,-0.13884 12.87126,-0.13886 z m -18.79846,-6.29312 c -1.22577,-4.76538 -1.9331,-10.14222 -1.57182,-11.94855 0.36982,-1.84915 0.0549,-3.65626 -0.72082,-4.13566 -0.75771,-0.46829 -6.28441,-0.1809 -12.28155,0.63865 l -10.90391,1.49009 0.73092,6.77418 c 0.40201,3.7258 1.02315,8.81525 1.38031,11.30989 l 0.64939,4.53571 h 12.47307 12.47308 z m -28.32337,-2.52378 c -0.47714,-5.48821 -1.05617,-10.16981 -1.28673,-10.40356 -0.44266,-0.44878 -17.60968,2.22746 -18.82523,2.93474 -0.87608,0.50977 1.55064,13.85367 2.89803,15.93549 0.63083,0.97469 4.01705,1.5119 9.52998,1.5119 h 8.55147 z m -22.93731,4.23333 c -1.83895,-10.68344 -2.07504,-11.29622 -4.13077,-10.72131 -1.10555,0.30918 -3.82836,0.92901 -6.05069,1.37739 -3.39979,0.68596 -3.92991,1.22778 -3.3427,3.41648 0.38383,1.43069 0.70532,3.84343 0.71441,5.36165 0.0189,3.15592 3.34048,4.90821 9.52492,5.02484 4.03958,0.0762 4.06058,0.0477 3.28483,-4.45905 z m -17.13863,-2.54481 c -0.74357,-4.65007 -1.00995,-4.93158 -3.97106,-4.19679 -5.39572,1.33893 -11.03593,3.99618 -11.03593,5.19932 0,1.3766 13.78637,5.09568 15.46154,4.17095 0.18837,-0.10402 -0.0162,-2.43205 -0.45455,-5.17348 z m -12.1624,-50.40271 c -0.546,-1.42288 -1.09095,-1.52739 -2.38108,-0.45667 -1.5327,1.27203 -2.18234,0.68932 -1.81627,-1.62913 0.0788,-0.49893 -0.63937,-0.90715 -1.59588,-0.90715 -0.99351,0 -1.66099,-1.03711 -1.5569,-2.41904 0.10022,-1.33048 0.59153,-2.41905 1.0918,-2.41905 0.50027,0 1.49216,1.08857 2.20421,2.41905 2.46021,4.59694 12.09524,1.7498 12.09524,-3.57413 0,-5.02022 -8.41224,-6.88362 -11.16641,-2.47349 -0.8309,1.33047 -2.0804,2.41904 -2.77667,2.41904 -0.69627,0 -1.34794,-1.08857 -1.44817,-2.41904 -0.10022,-1.33048 0.54215,-2.41905 1.42749,-2.41905 0.88534,0 1.94653,-0.87773 2.35819,-1.9505 0.57619,-1.50154 1.13029,-1.63365 2.4072,-0.5739 1.28436,1.06592 1.8564,0.89193 2.53456,-0.77092 0.81244,-1.99208 0.9489,-1.97242 1.88506,0.27151 0.97883,2.34623 1.03378,2.33714 1.82552,-0.30238 0.44898,-1.49679 1.3338,-2.72143 1.96628,-2.72143 0.63248,0 0.80446,-1.08857 0.38219,-2.41905 -0.54031,-1.70235 -0.21735,-2.41904 1.09005,-2.41904 1.21347,0 1.59779,-0.67768 1.10807,-1.95387 -0.59614,-1.5535 -0.2166,-1.78464 1.85224,-1.12801 1.90754,0.60543 2.60202,0.31986 2.60202,-1.06995 0,-1.58835 -1.86363,-1.89579 -11.49186,-1.89579 h -11.49186 l 0.0814,16.32857 0.0814,16.32857 h 4.72012 c 3.73384,0 4.57218,-0.38555 4.01207,-1.84515 z m 26.742,0.71126 c 0.39517,-0.63939 -0.62868,-0.89283 -2.34767,-0.58112 -2.20427,0.39971 -3.04845,0.0241 -3.04845,-1.35653 0,-1.05013 -0.50668,-1.59618 -1.12594,-1.21345 -0.61928,0.38274 -1.44459,0.18032 -1.83402,-0.4498 -0.38944,-0.63013 -0.0968,-1.52347 0.65032,-1.9852 0.96282,-0.59507 0.88052,-1.14772 -0.28266,-1.89787 -1.36069,-0.87753 -1.33109,-1.2618 0.17325,-2.24934 1.71263,-1.12426 1.58758,-1.31393 -1.10873,-1.68161 -0.60979,-0.0831 -1.43902,-0.48149 -1.84271,-0.88518 -0.40369,-0.40368 -2.13195,-0.46674 -3.84058,-0.14011 -2.23669,0.42757 -2.65492,0.87301 -1.49359,1.59075 1.22645,0.758 1.27575,1.33416 0.20574,2.40417 -0.77401,0.77401 -1.11944,2.1574 -0.76763,3.07419 0.37991,0.99002 -0.14962,1.66689 -1.30404,1.66689 -1.06903,0 -1.94369,0.56815 -1.94369,1.26255 0,0.6944 -0.89604,1.10262 -1.99119,0.90715 -1.09515,-0.19548 -2.22908,0.32495 -2.51984,1.15649 -0.40006,1.14414 2.42067,1.51191 11.59599,1.51191 6.66856,0 12.44,-0.51025 12.82544,-1.13389 z m 4.97123,-4.22257 c 2.64597,-2.64597 2.06116,-7.22229 -1.29592,-10.14123 -1.6631,-1.44605 -3.02381,-2.08848 -3.02381,-1.42765 0,0.66085 -0.58316,1.20153 -1.29592,1.20153 -3.96865,0 -6.32963,7.61445 -3.30027,10.64381 1.97858,1.97857 6.81072,1.82874 8.91592,-0.27646 z M -239.46472,196.85 c -0.0647,-0.99785 0.56457,-1.67761 1.39833,-1.51056 1.19326,0.23907 1.17609,-0.53325 -0.0807,-3.62857 -1.28984,-3.17679 -2.37532,-4.00802 -5.64981,-4.32644 -2.76287,-0.26867 -4.39733,0.22074 -5.13414,1.53734 -0.5945,1.06232 -1.56994,1.62926 -2.16762,1.25987 -0.59769,-0.3694 -0.49609,1.02262 0.22577,3.09337 1.36961,3.92886 3.70403,5.38928 8.61455,5.38928 1.83365,0 2.86767,-0.67154 2.7936,-1.81429 z m -2.704,-12.7 c 0.38291,-0.99785 0.16899,-1.81428 -0.47535,-1.81428 -0.64437,0 -1.17157,0.81643 -1.17157,1.81428 0,0.99786 0.21391,1.81429 0.47535,1.81429 0.26145,0 0.78865,-0.81643 1.17157,-1.81429 z m -53.24864,-2.20024 c -3.16133,-5.36802 -6.95904,-9.27042 -8.00441,-8.22505 -1.96679,1.96679 0.16763,7.2342 3.67633,9.07259 3.5674,1.86915 5.68391,1.45469 4.32808,-0.84754 z m 8.04034,-6.50136 c 0.0368,-2.86643 -5.43574,-7.87493 -8.13267,-7.44315 -2.50993,0.40185 -2.42834,0.68055 1.79782,6.14132 4.18341,5.40554 6.27671,5.83572 6.33485,1.30183 z M -307.003,154.673 c 1.35526,-0.72531 4.75185,-3.91471 7.54798,-7.08755 4.0377,-4.58168 4.66568,-5.85305 3.05167,-6.17827 -5.00146,-1.00781 -21.19324,8.60808 -21.19324,12.58614 0,1.39657 0.31311,2.85233 0.6958,3.23502 0.79872,0.79872 6.27003,-0.61381 9.89779,-2.55534 z m 12.79637,-2.00936 c 7.28908,-5.56564 8.99215,-8.63507 6.26446,-11.29046 -1.88174,-1.83187 -2.17624,-1.76301 -4.04903,0.94667 -1.11082,1.60723 -4.52728,5.5533 -7.59213,8.76905 -4.92032,5.16258 -5.25916,5.84682 -2.89536,5.84682 1.4724,0 5.19482,-1.92244 8.27206,-4.27208 z m -20.40822,-13.17742 c 4.6467,-2.72315 10.46788,-10.62786 8.94674,-12.149 -1.94356,-1.94356 -19.48244,7.33256 -20.91306,11.06068 -1.85702,4.83932 4.56853,5.42371 11.96632,1.08832 z m -15.07698,-13.39336 c -0.82815,-0.99785 -1.98337,-1.81428 -2.56715,-1.81428 -0.58378,0 -1.06142,0.81643 -1.06142,1.81428 0,1.04283 1.09158,1.81429 2.56714,1.81429 2.14477,0 2.31941,-0.29851 1.06143,-1.81429 z m -10.36626,-1.297 c 1.21796,-1.21796 1.63678,-2.95757 1.16479,-4.8381 -0.40533,-1.61498 -0.37004,-2.93633 0.0784,-2.93633 1.4533,0 6.03512,2.6631 8.61621,5.00801 2.46238,2.23707 2.56158,2.23739 4.57305,0.0147 2.74729,-3.03571 4.047,-14.02431 1.95668,-16.54299 -2.19228,-2.64154 -0.35417,-3.98239 6.07234,-4.42958 5.14424,-0.35796 5.44285,-0.57586 5.44285,-3.97159 0,-2.514293 -0.81446,-3.998903 -2.7131,-4.945478 -1.4922,-0.743944 -3.7122,-2.256804 -4.93333,-3.361906 -3.10424,-2.8093 -4.39206,-2.53989 -7.92414,1.657752 -3.05025,3.625015 -4.97418,4.253848 -5.00956,1.637368 -0.01,-0.741384 -0.7626,-2.244881 -1.67238,-3.3411 -1.32831,-1.60052 -2.00572,-1.70137 -3.43885,-0.51197 -1.44576,1.19987 -2.10973,1.036647 -3.49621,-0.85948 -1.27632,-1.74546 -2.85771,-2.24207 -6.21912,-1.95299 -2.47917,0.21321 -4.90747,1.0149 -5.39621,1.78154 -1.38647,2.174798 -1.07888,8.618762 0.48611,10.183748 1.63039,1.630396 0.21636,2.375701 -5.59879,2.950976 -3.10057,0.30674 -3.79106,1.07881 -5.13524,5.742 -1.82428,6.32876 -1.18281,7.26917 5.57692,8.17584 4.17018,0.55934 4.89602,1.04507 4.31189,2.88549 -0.41559,1.30941 0.40593,3.71199 2.01205,5.88438 3.06174,4.14123 8.08376,4.93152 11.24561,1.76967 z m -6.56708,-18.41125 c 0,-1.30445 0.81643,-3.04931 1.81429,-3.87746 0.99786,-0.82815 1.81429,-2.19727 1.81429,-3.042503 0,-1.865692 3.35476,-3.3171 5.13047,-2.219651 0.8521,0.526628 0.71376,1.244726 -0.41153,2.136143 -0.93232,0.738561 -2.60464,2.954361 -3.71626,4.924001 -2.44546,4.33304 -4.63126,5.31448 -4.63126,2.07947 z m 31.3516,13.78032 c 3.41604,-3.65659 3.13462,-4.37461 -1.37499,-3.50826 -2.73663,0.52573 -8.20518,6.88151 -8.20518,9.53639 0,1.22117 6.81227,-3.06531 9.58017,-6.02813 z m 1.15436,-6.3185 c 2.52304,-0.5046 3.77976,-1.46695 3.77976,-2.8944 0,-4.46927 -8.80159,-3.55867 -9.45793,0.97851 -0.41985,2.90234 0.014,3.04873 5.67817,1.91589 z m 228.146416,198.95608 c -3.32619,-0.59868 -13.39548,-3.17358 -22.376186,-5.72202 l -16.32857,-4.63354 0.15834,-117.2056 c 0.1431,-105.924924 0.35539,-117.953994 2.20576,-124.981174 2.50346,-9.50748 6.65122,-17.87689 10.75748,-21.70662 3.73219,-3.48085 16.937986,-6.83015 34.305756,-8.70073 26.11781,-2.81301 41.45432,3.57103 41.46813,17.26171 0.007,7.13295 -2.11349,10.14509 -10.12906,14.38677 -11.35901,6.01098 -14.752,9.07649 -18.3387,16.56864 -3.95,8.25107 -18.96305,66.986874 -18.45245,72.191854 0.30453,3.1043 0.91954,3.70481 4.113,4.01598 3.53508,0.34448 5.85521,-1.96801 39.6247,-39.49401 34.553503,-38.397214 41.408493,-44.932354 50.96323,-48.585314 6.826456,-2.60989 37.375277,-8.44368 44.215557,-8.44368 9.499491,0 13.764006,3.12943 19.955619,14.64405 2.697492,5.01653 8.168555,13.70705 12.157927,19.312265 12.291651,17.270229 13.805541,20.738739 10.829738,24.812399 -1.424602,1.95018 -3.55577,2.37599 -13.610505,2.71942 -9.773315,0.33383 -13.323231,-0.065 -19.701014,-2.21355 L 58.066373,114.4086 6.911079,139.51295 c -28.13541,13.80739 -51.155303,25.42285 -51.155303,25.81214 0,0.38929 4.44672,4.512 9.88159,9.16159 11.389753,9.74405 27.702433,27.64341 36.364353,39.90142 15.654973,22.15432 19.657021,38.3439 14.999919,60.67951 -3.240629,15.54215 -9.479209,24.58189 -20.252159,29.34555 -16.01042,7.07958 -63.334163,11.87896 -82.722273,8.38935 z m 58.62805,-4.71813 c 23.981893,-4.15267 31.888393,-8.2539 37.637553,-19.52318 5.513311,-10.80697 7.797461,-31.15048 4.838167,-43.09044 -1.199001,-4.8376 -2.075893,-6.31365 -3.570369,-6.00987 -2.108588,0.42862 -2.332618,2.75304 -0.876748,9.09625 1.326594,5.77995 -1.35284,5.00322 -3.96598,-1.14969 l -2.15775,-5.08064 -6.25931,0.33222 c -3.61452,0.19184 -6.25933,-0.1823 -6.25933,-0.88547 0,-1.42456 1.60053,-1.95227 11.79286,-3.88817 4.34663,-0.82558 7.559525,-2.06161 7.559525,-2.90819 0,-2.57857 -12.996855,-22.28552 -21.029015,-31.88601 -8.03781,-9.60726 -22.001843,-23.45669 -33.238073,-32.96535 l -6.49089,-5.4929 7.09565,-6.68745 c 3.90261,-3.67807 22.489853,-20.70855 41.304963,-37.8455 L 33.24582,88.941916 45.31636,100.07998 c 12.996502,11.99249 18.883738,15.14054 31.757559,16.98154 7.411841,1.05992 18.301002,-0.0802 20.351653,-2.13083 1.882019,-1.88202 -1.405286,-8.50883 -10.801241,-21.773992 C 82.02104,86.657786 76.265534,77.506836 73.834318,72.821266 c -2.700044,-5.20367 -5.78029,-9.32253 -7.914652,-10.58333 -5.061954,-2.99017 -13.992424,-2.59392 -33.613186,1.49143 -17.188192,3.57886 -25.882831,6.96332 -32.764501,12.75387 -2.05153,1.72625 -19.56644,20.744012 -38.922013,42.261684 l -35.19195,39.12303 -5.06588,-1.13823 c -2.78624,-0.62602 -5.46474,-1.78359 -5.95224,-2.57237 -1.83459,-2.96844 -2.30667,-14.55725 -1.95474,-47.98555 l 0.36253,-34.435344 17.53809,-5.62771 c 9.64595,-3.09524 17.93032,-5.40245 18.40972,-5.12713 1.20104,0.68978 7.82226,-2.8493 10.68317,-5.71021 3.23277,-3.23276 3.19113,-11.8509 -0.0773,-16.00606 -4.23329,-5.3817 -12.18436,-7.53463 -27.20132,-7.36536 -14.42001,0.16255 -36.229426,4.01147 -41.205546,7.27195 -1.5843,1.03808 -4.28728,4.76266 -6.00662,8.27686 -7.15139,14.61693 -6.85276,9.18813 -7.49203,136.195184 l -0.58797,116.81777 17.96989,4.96797 c 9.883436,2.73238 19.602746,5.23013 21.598466,5.55057 8.36335,1.34285 41.62694,-0.37091 56.209,-2.89591 z m -36.93643,-71.92486 c -0.45485,-2.42457 -1.51184,-4.23333 -2.47385,-4.23333 -0.92382,0 -1.67967,0.42694 -1.67967,0.94874 0,0.52181 -1.5214,1.84746 -3.3809,2.94589 -4.44617,2.62641 -6.90112,1.16494 -5.81808,-3.46359 1.4609,-6.24326 1.39882,-7.10029 -0.47721,-6.58749 -9.90157,2.70659 -13.12143,0.11152 -7.20392,-5.80595 4.01458,-4.01456 4.36434,-4.97093 1.81797,-4.97093 -3.41409,0 -7.91882,-2.83504 -7.91882,-4.98369 0,-1.5225 1.54437,-2.61985 5.14048,-3.65254 2.82726,-0.81192 5.30953,-1.59246 5.51617,-1.73455 0.20662,-0.14211 -1.05548,-1.68953 -2.80468,-3.43873 -4.35148,-4.35148 -3.58062,-7.38029 1.85232,-7.27791 2.31288,0.0435 5.02167,0.31572 6.01952,0.60476 1.46417,0.4241 1.73762,-0.5512 1.417,-5.05389 -0.49659,-6.97389 1.804,-8.32511 6.88914,-4.04625 3.33064,2.80255 7.05052,4.10527 5.76002,2.01718 -1.08958,-1.76296 3.13137,-8.72009 5.29055,-8.72009 2.33483,0 5.55425,6.32238 4.27412,8.39366 -1.47089,2.37994 1.99834,1.30473 5.61832,-1.74128 3.96014,-3.33224 4.45753,-3.47109 6.89779,-1.92565 1.34484,0.8517 1.40451,1.83848 0.30238,5.00006 -1.9783,5.67494 -1.9103,5.76041 4.04826,5.0888 4.45267,-0.50188 5.57079,-0.22173 6.25752,1.56787 0.60707,1.582 -0.27215,3.10419 -3.20935,5.55626 -2.85388,2.38254 -3.53918,3.53945 -2.32657,3.92773 0.9454,0.30273 3.31775,1.03577 5.27189,1.62898 1.95415,0.59321 3.74736,1.66172 3.98495,2.37448 0.736783,2.21032 -3.30206,5.20527 -7.01956,5.20527 -2.34225,0 -3.54217,0.6146 -3.54217,1.81429 0,0.99786 0.48169,1.81429 1.07041,1.81429 0.58873,0 2.00319,1.42359 3.14325,3.16354 1.83523,2.80091 1.8665,3.36989 0.27282,4.96357 -1.24805,1.24806 -2.9475,1.54799 -5.54215,0.97811 -5.45729,-1.19863 -5.59671,-1.08681 -5.59671,4.4886 0,6.45905 -2.94698,7.44354 -7.94576,2.65441 -3.23473,-3.09907 -3.52476,-3.16904 -4.22342,-1.01886 -1.8456,5.67995 -3.48205,7.75158 -6.12326,7.75158 -2.20194,0 -2.92625,-0.86161 -3.5588,-4.23334 z m 6.73219,-4.44147 c 0,-1.30687 1.21193,-2.469 3.05801,-2.93233 2.36258,-0.59297 3.75314,-0.0174 6.11462,2.5306 3.72377,4.01803 4.99859,3.20266 2.90293,-1.85669 -1.38914,-3.35367 -1.2933,-4.01517 0.89935,-6.20783 1.99142,-1.99141 2.92311,-2.20321 4.94106,-1.12322 1.36781,0.73202 3.47518,1.31137 4.68309,1.28745 1.78814,-0.0354 1.56465,-0.56029 -1.20295,-2.82502 -2.74811,-2.2488 -3.24422,-3.39874 -2.5903,-6.00413 0.61884,-2.46569 1.55926,-3.22695 4.00388,-3.24111 1.75729,-0.01 3.98311,-0.51708 4.94628,-1.12642 1.35207,-0.8554 0.93857,-1.28771 -1.81429,-1.89679 -6.17608,-1.3665 -6.5893,-1.65422 -6.5893,-4.58807 0,-1.88505 1.03609,-3.3397 3.02381,-4.24537 1.66309,-0.75775 3.02381,-1.93369 3.02381,-2.61319 0,-1.61715 -1.59046,-1.56112 -5.43722,0.19158 -2.70398,1.23201 -3.48648,1.07256 -5.72586,-1.16684 -2.50017,-2.50016 -2.51568,-2.68027 -0.42937,-4.98561 1.19048,-1.31546 1.92971,-3.09614 1.64274,-3.95706 -0.35441,-1.06321 -1.47118,-0.54088 -3.48161,1.6284 -2.24735,2.42494 -3.75294,3.04209 -6.25472,2.56384 -2.66047,-0.50858 -3.29491,-1.28766 -3.29491,-4.04605 0,-1.8789 -0.48726,-3.71732 -1.08279,-4.08538 -1.23795,-0.7651 -2.54578,2.04161 -2.54578,5.46345 0,1.27606 -0.68036,2.32755 -1.51191,2.33663 -0.83155,0.01 -2.73655,0.34472 -4.23333,0.74584 -1.98244,0.53128 -2.72143,0.20991 -2.72143,-1.18348 0,-1.05204 -1.08857,-2.49539 -2.41905,-3.20744 -2.01058,-1.07603 -2.41905,-0.91983 -2.41905,0.92507 0,1.22083 0.64594,2.86563 1.43542,3.65511 1.10752,1.10752 0.79083,2.12152 -1.38643,4.43911 -2.73188,2.90795 -2.9307,2.93941 -6.23629,0.98674 -4.54347,-2.68389 -6.14561,-0.80781 -2.13496,2.50001 2.69702,2.22438 3.00095,3.09537 2.04354,5.85623 -0.89201,2.57224 -1.86377,3.22219 -4.69716,3.14164 -1.96486,-0.0559 -3.95726,0.28321 -4.42756,0.75349 -1.36809,1.3681 2.43855,3.10339 5.25636,2.39617 2.08009,-0.52208 2.69841,0.009 3.22763,2.77174 0.53053,2.76968 -0.07,4.03878 -3.16772,6.69458 -4.24152,3.63641 -2.10537,4.76086 2.67864,1.41002 2.63277,-1.84407 2.9596,-1.81165 5.29671,0.52545 2.3616,2.36161 2.39072,2.69742 0.56137,6.4746 -2.52996,5.22379 -1.4141,6.11912 2.27884,1.82849 2.46822,-2.8677 3.53994,-3.28634 6.65913,-2.60125 2.96217,0.6506 3.58914,1.30728 3.0858,3.23203 -0.34741,1.32853 -0.30922,3.25582 0.0849,4.28284 0.61913,1.61343 0.9368,1.56612 2.33633,-0.34784 0.89083,-1.21834 1.61973,-3.18933 1.61973,-4.37999 z m -8.4359,-13.06585 c -7.15691,-7.15691 -2.3419,-18.17363 7.94303,-18.17363 4.54237,0 8.95954,5.06865 8.95954,10.28096 0,8.7171 -10.96024,13.835 -16.90257,7.89267 z M 21.507259,129.84502 C 50.52434,115.65108 54.996542,113.10803 53.696231,111.54126 52.865675,110.54049 47.918795,105.87474 42.703172,101.17293 L 33.220215,92.624173 0.369399,122.66328 c -18.06795,16.52151 -34.544943,31.53616 -36.615553,33.36592 -4.44778,3.93039 4.26267,-0.0187 57.753413,-26.18418 z M -67.021354,78.637726 c 2.18308,-4.96755 5.05641,-9.7934 6.38517,-10.7241 3.61375,-2.53118 1.32998,-2.13491 -12.51718,2.17188 l -12.58058,3.91286 0.78772,23.520324 c 0.43324,12.93618 0.82208,27.92315 0.86409,33.30439 l 0.0763,9.78407 6.5076,-26.46875 c 3.57917,-14.557817 8.29375,-30.533114 10.47682,-35.500674 z M 269.43822,289.96811 c -17.08599,-3.49887 -26.84404,-16.84043 -25.54085,-34.92039 0.69426,-9.63208 5.11425,-19.15461 10.96064,-23.61387 17.20484,-13.12276 42.99765,-8.64968 52.00204,9.01838 6.52919,12.81132 3.9671,31.62117 -5.56324,40.84314 -7.41626,7.17627 -21.04662,10.88682 -31.85859,8.67274 z m 15.0964,-16.32088 c 8.35551,-7.0307 7.81469,-27.37778 -0.90701,-34.12305 -2.73379,-2.11428 -9.96179,-1.88415 -13.25429,0.42199 -4.01739,2.81389 -6.18897,8.91217 -6.18897,17.38002 0,4.03416 0.75892,9.15122 1.68652,11.37125 3.4175,8.17922 12.09179,10.47972 18.66375,4.94979 z m 70.36401,16.40213 c -5.57494,-1.08997 -8.95935,-3.0065 -11.89124,-6.73379 l -2.40263,-3.05447 -0.82129,4.86111 -0.82128,4.86111 h -7.75559 -7.75559 V 242.8119 195.64048 h 9.67619 9.67619 v 18.97391 18.9739 l 3.32619,-3.1023 c 5.27768,-4.92245 8.85084,-6.25023 16.84808,-6.26072 10.57214,-0.0139 17.7205,4.48286 22.7453,14.30806 3.23468,6.32492 3.64221,8.30361 3.60392,17.49781 -0.0479,11.51391 -2.78074,19.56507 -8.79071,25.89867 -6.30011,6.63935 -16.57094,9.89218 -25.63754,8.11955 z m 7.41249,-16.47494 c 4.64479,-2.40191 7.1018,-8.23988 7.1018,-16.87421 0,-11.19328 -4.89329,-17.51688 -13.55481,-17.51688 -3.3182,0 -5.61919,0.95543 -8.49992,3.52936 -3.91625,3.49917 -3.95004,3.62414 -3.95004,14.6135 0,10.98935 0.0337,11.11432 3.95004,14.6135 4.5033,4.0237 9.31577,4.54983 14.95293,1.63473 z m 63.15566,16.39369 c -17.08598,-3.49887 -26.84403,-16.84043 -25.54084,-34.92039 0.69426,-9.63208 5.11425,-19.15461 10.96064,-23.61387 17.20483,-13.12276 42.99765,-8.64968 52.00204,9.01838 6.52919,12.81132 3.9671,31.62117 -5.56325,40.84314 -7.41625,7.17627 -21.04662,10.88682 -31.85859,8.67274 z m 15.09641,-16.32088 c 8.35551,-7.0307 7.81468,-27.37778 -0.90701,-34.12305 -2.73379,-2.11428 -9.9618,-1.88415 -13.25429,0.42199 -4.0174,2.81389 -6.18897,8.91217 -6.18897,17.38002 0,4.03416 0.75892,9.15122 1.68652,11.37125 3.4175,8.17922 12.09179,10.47972 18.66375,4.94979 z m 56.1824,16.3952 c -11.50351,-2.80378 -13.93665,-8.19815 -14.62033,-32.41386 l -0.52076,-18.44524 h -4.08627 -4.08627 v -7.25714 -7.25714 h 4.17298 4.17297 l 0.36274,-6.88073 0.36274,-6.88071 5.44286,-1.37884 c 2.99357,-0.75834 7.21178,-1.73056 9.37381,-2.16046 l 3.93095,-0.78164 v 9.04119 9.04119 h 7.25714 7.25714 v 7.25714 7.25714 h -7.35326 -7.35326 l 0.3985,15.83343 c 0.38162,15.16272 0.5254,15.93609 3.39437,18.25658 2.1623,1.74894 4.09737,2.2444 6.95476,1.7807 l 3.95889,-0.64244 v 7.10972 c 0,3.91035 -0.40821,7.34601 -0.90714,7.63482 -2.0154,1.16665 -14.46324,1.77575 -18.11256,0.88629 z m -326.9041,-44.12521 c 0,-43.52275 0.031,-44.07592 2.50764,-44.86201 4.41747,-1.40204 36.55029,-1.08468 41.75967,0.41244 7.51427,2.15953 12.89098,6.31019 15.9065,12.27935 5.8957,11.6704 1.44619,26.44861 -9.71081,32.25259 l -3.3608,1.74833 3.69045,3.10531 c 5.02412,4.22751 5.83469,5.98704 10.92202,23.70867 l 4.427,15.42142 H 225.9445 215.90583 l -2.36386,-8.16428 c -1.30011,-4.49036 -3.23298,-11.25822 -4.29526,-15.03969 -2.47979,-8.82745 -6.1134,-11.87221 -14.16833,-11.87221 h -5.88451 v 17.53809 17.53809 h -9.67619 -9.67619 z m 37.61876,-8.28647 c 4.75182,-3.19359 7.07363,-9.83683 5.23854,-14.98866 -1.97548,-5.54596 -7.00476,-8.2356 -15.41773,-8.24533 l -7.48242,-0.009 -0.3433,13.00238 -0.3433,13.00238 h 7.11919 c 5.4078,0 8.10716,-0.664 11.22902,-2.76211 z m 320.40028,19.69544 v -32.65714 h 9.67619 9.67619 v 32.65714 32.65713 h -9.67619 -9.67619 z m 36.28572,-14.51429 v -47.17142 h 9.65429 9.6543 l 0.32428,28.47595 0.32427,28.47595 9.07143,-13.95464 9.07143,-13.95465 11.89699,-0.007 11.89699,-0.007 -11.67364,13.2762 -11.67363,13.27621 8.14699,11.82141 c 4.48084,6.50177 10.53104,15.2232 13.4449,19.38093 l 5.2979,7.55952 H 617.44573 605.3087 l -7.41773,-12.71592 c -4.07975,-6.99376 -7.85487,-12.98609 -8.38914,-13.31628 -0.53427,-0.3302 -2.10355,0.83894 -3.48731,2.59809 -2.09277,2.661 -2.51589,4.90054 -2.51589,13.31675 v 10.11783 h -9.67619 -9.67619 z m -30.2381,-27.42272 c -6.34971,-2.49182 -8.35376,-11.39494 -3.62857,-16.12013 3.15274,-3.15274 10.82025,-3.23446 14.6222,-0.15583 3.60423,2.91853 3.83346,10.05677 0.43217,13.45807 -2.52657,2.52657 -8.44727,3.98676 -11.4258,2.81789 z m -746.69347,-13.49394 c -2.69156,-2.97413 -2.52403,-6.94201 0.41729,-9.88333 2.90602,-2.90602 5.78904,-3.07034 9.40706,-0.53618 3.19231,2.23598 3.60868,7.90956 0.7875,10.73073 -2.56635,2.56636 -8.15604,2.40243 -10.61185,-0.31122 z m 20.5619,0 c -4.38836,-4.84908 -0.78855,-12.30238 5.94182,-12.30238 3.36381,0 6.57072,3.64449 6.57072,7.4673 0,6.19433 -8.35919,9.42449 -12.51254,4.83508 z m 18.56016,-5.04524 v -4.83809 h 5.44285 5.44286 v 4.83809 4.8381 h -5.44286 -5.44285 z m 7.25714,0.60476 c 0,-0.99785 -0.81643,-1.81428 -1.81429,-1.81428 -1.88875,0 -2.39966,1.4305 -1.00793,2.82222 1.39171,1.39172 2.82222,0.88082 2.82222,-1.00794 z m 11.11507,-0.30238 c 0.3644,-4.4027 0.52615,-4.54662 5.51588,-4.90764 l 5.14048,-0.37193 v 4.90764 4.90765 h -5.51588 -5.51586 z m 7.02779,0.30238 c 0,-0.99785 -0.81643,-1.81428 -1.81429,-1.81428 -1.88876,0 -2.39966,1.4305 -1.00793,2.82222 1.39171,1.39172 2.82222,0.88082 2.82222,-1.00794 z m 400.83873,-41.72494 c -3.39131,-0.49725 -8.20971,-1.5786 -10.70756,-2.40296 -4.95751,-1.63612 -4.97927,-1.79254 -1.86058,-13.37445 l 1.18886,-4.4151 6.74947,2.2786 c 3.71221,1.25324 10.27927,2.33876 14.59347,2.41228 9.85759,0.16798 14.15509,-2.47365 14.7165,-9.0461 0.49071,-5.74471 -1.85721,-7.95307 -13.69519,-12.88123 -18.21397,-7.5825 -24.80153,-14.55105 -24.74953,-26.180927 0.0513,-11.457787 6.34332,-19.824757 18.19935,-24.200727 9.85494,-3.63739 36.93051,-1.68049 36.76622,2.65728 -0.0226,0.5983 -0.77829,4.16675 -1.67917,7.92991 l -1.63796,6.84209 -4.96307,-1.75107 c -2.72969,-0.96309 -8.34309,-1.80867 -12.47423,-1.87907 -8.54312,-0.14558 -13.18413,2.08015 -14.39469,6.90339 -1.30988,5.219001 2.09569,8.335263 15.24516,13.950054 7.87021,3.36055 13.94625,6.86451 16.93792,9.76783 12.07445,11.71785 8.40485,31.67091 -7.31208,39.75866 -4.55842,2.3457 -16.52521,4.9358 -21.65282,4.68653 -1.70723,-0.083 -5.87876,-0.55773 -9.27007,-1.05499 z m -82.73398,-44.756 V 66.221436 h 27.21429 27.21428 v 7.86191 7.8619 h -17.53809 -17.5381 v 9.676192 9.676192 h 16.32857 16.32857 v 7.8619 7.86191 h -16.32857 -16.32857 v 11.49047 11.49047 h 18.14286 18.14286 v 7.86191 7.86191 h -27.81905 -27.81905 z m 142.72381,0 V 66.221436 h 9.67619 9.67619 v 44.752384 44.75238 h -9.67619 -9.67619 z m 32.76418,37.19285 c 1.26002,-4.15774 7.37193,-24.16024 13.582,-44.45 l 11.29103,-36.890464 h 13.14324 13.14325 l 13.67624,44.101444 c 7.52194,24.2558 13.67625,44.27948 13.67625,44.49708 0,0.2176 -4.73374,0.23838 -10.51943,0.0462 l -10.51943,-0.34947 -3.21785,-10.88571 -3.21786,-10.88571 -13.27425,-0.3401 -13.27425,-0.3401 -1.33031,4.57343 c -0.73167,2.51539 -2.22224,7.70307 -3.31239,11.52819 l -1.98208,6.95476 h -10.07756 -10.07756 l 2.29096,-7.55952 z m 47.10037,-30.84285 c 0.0733,-1.84826 -9.1295,-35.359694 -9.71217,-35.366224 -0.50791,-0.006 -7.40301,24.720344 -9.3563,33.551934 -0.58569,2.64813 -0.33749,2.72143 9.21529,2.72143 5.39946,0 9.83339,-0.40822 9.85318,-0.90714 z m 44.7164,-6.35 V 66.221436 h 9.67619 9.67619 v 36.285714 36.28571 h 17.53809 17.5381 v 8.46666 8.46668 h -27.21429 -27.21428 z"
       id="path116" />
  </g>
</svg>
